<?xml version="1.0" encoding="utf-8"?>
<!-- Generator: Adobe Illustrator 18.0.0, SVG Export Plug-In . SVG Version: 6.00 Build 0)  -->
<!DOCTYPE svg PUBLIC "-//W3C//DTD SVG 1.1//EN" "http://www.w3.org/Graphics/SVG/1.1/DTD/svg11.dtd">
<svg version="1.1" id="Layer_1" xmlns="http://www.w3.org/2000/svg" xmlns:xlink="http://www.w3.org/1999/xlink" x="0px" y="0px"
	 viewBox="0 0 150 50" enable-background="new 0 0 150 50" xml:space="preserve">
<g>
	<g>
		<path fill="#00E5FF" d="M16.1,9.1c0.2,0.5,0.4,0.8,0.4,1c0.1,0.1,0.1,0.4,0.2,0.7c-0.3-0.2-0.6-0.5-0.8-0.6
			c-0.2-0.2-0.4-0.3-0.7-0.5c-0.2-0.1-0.5-0.3-0.7-0.4c-0.3-0.1-0.6-0.2-1-0.3c-1-0.1-1.9-0.1-2.8,0.1c-0.9,0.2-1.6,0.5-2.2,1
			c-0.6,0.4-1,1-1.3,1.6c-0.2,0.6-0.2,1.3,0,2.1c0.3,0.8,0.7,1.6,1.3,2.4c0.6,0.8,1.2,1.5,2,2.2c0.7,0.7,1.5,1.4,2.3,2
			c0.8,0.6,1.6,1.2,2.4,1.8c0.8,0.6,1.5,1.1,2.1,1.5c0.6,0.4,1.1,0.8,1.5,1.2c0.8-0.4,1.5-0.7,2.2-1c0.7-0.3,1.4-0.5,2.1-0.8h0.2
			c0.1,0,0.1,0.1,0,0.2c-0.2,0.2-0.5,0.4-0.8,0.6c-0.3,0.2-0.6,0.5-1,0.7c-0.3,0.2-0.6,0.5-1,0.7c-0.3,0.2-0.6,0.4-0.8,0.6
			c0.7,0.7,1.2,1.4,1.4,2c0.2,0.6,0.2,1.2,0,1.7c-0.2,0.6-0.6,1.1-1.2,1.7c-0.6,0.6-1.4,1.2-2.4,1.9c-0.6,0.4-1.3,0.8-2.1,1.2
			c-0.7,0.3-1.4,0.5-2.1,0.6c-0.6,0.1-1.1-0.1-1.5-0.4c-0.4-0.3-0.5-0.9-0.4-1.7c0.4-1.3,1.1-2.6,2.2-3.7c1.1-1.1,2.3-2.3,3.7-3.5
			c0-0.1-0.2-0.3-0.7-0.6c-0.5-0.3-1.1-0.8-1.9-1.3c-0.8-0.5-1.6-1.2-2.5-1.9c-0.9-0.7-1.8-1.5-2.6-2.3c-0.8-0.8-1.6-1.6-2.2-2.5
			c-0.6-0.9-1.1-1.7-1.3-2.6c-0.3-1.1-0.4-2-0.2-2.8c0.2-0.8,0.4-1.5,0.8-2c0.4-0.5,0.8-1,1.2-1.2C8.3,8.1,8.7,7.9,9,7.8
			c0.6-0.2,1.1-0.3,1.7-0.4c0.6-0.1,1.2-0.2,1.8-0.1c0.6,0.1,1.2,0.2,1.8,0.5C14.9,8.1,15.5,8.5,16.1,9.1z M13.1,32.7
			c-0.1,0.2,0,0.3,0.2,0.4c0.2,0.1,0.5,0.2,0.9,0.1c0.4,0,0.9-0.1,1.5-0.4c0.6-0.2,1.3-0.6,2.2-1.1c0.6-0.4,1.1-0.9,1.4-1.4
			c0.3-0.5,0.5-1,0.6-1.5c0.1-0.5,0-0.9-0.2-1.3c-0.2-0.4-0.6-0.7-1.1-1c-0.2,0.1-0.7,0.4-1.2,0.9c-0.6,0.5-1.2,1-1.8,1.6
			c-0.6,0.6-1.2,1.2-1.6,1.9C13.3,31.6,13.1,32.2,13.1,32.7z"/>
		<path fill="#00E5FF" d="M24.7,5c0,0.1,0,0.4,0.1,1c0,0.6,0,1.3,0.1,2.1c0,0.9,0,1.9,0,3c0,1.1,0,2.2,0,3.4c0,1.2,0,2.3,0,3.5
			c0,1.1,0,2.2,0,3.2c0,1,0,1.8,0,2.4c0,0.7,0,1.1,0,1.3c0.3-1.2,0.7-2.2,1.2-3c0.5-0.8,1-1.2,1.4-1.3c0.5-0.1,0.9,0,1.1,0.3
			c0.3,0.3,0.5,0.7,0.6,1.3c0.2,0.5,0.3,1.1,0.5,1.8c0.2,0.7,0.4,1.3,0.7,1.9c0.3,0.6,0.6,1.1,1.1,1.6c0.5,0.5,1.1,0.7,1.9,0.8
			c-0.6,0.5-1.2,0.8-1.7,0.7c-0.5,0-1-0.3-1.4-0.7c-0.4-0.4-0.7-0.9-1-1.5c-0.3-0.6-0.5-1.2-0.7-1.8c-0.2-0.6-0.4-1.1-0.5-1.6
			c-0.1-0.4-0.2-0.7-0.3-0.8c-0.1-0.2-0.3-0.2-0.5,0c-0.2,0.2-0.4,0.4-0.5,0.8c-0.2,0.4-0.4,0.8-0.5,1.3c-0.2,0.5-0.3,0.9-0.4,1.4
			c-0.1,0.4-0.2,0.8-0.3,1.1c-0.1,0.3-0.1,0.4-0.1,0.4c-0.1,0.3-0.1,0.7-0.2,1.3c-0.1,0.5-0.1,1-0.1,1.5c0,0.5,0,1,0,1.4
			c0,0.4,0,0.7,0.1,0.8c-0.2,0-0.4-0.1-0.7-0.2c-0.3-0.1-0.6-0.2-0.7-0.2c0-0.7,0-1.7,0-2.9c0-1.2,0-2.5,0-4c0-1.5,0-3.1,0-4.8
			c0-1.7,0-3.4-0.1-5.1c0-1.7-0.1-3.4-0.1-5.1c-0.1-1.7-0.1-3.3-0.2-4.8c0,0,0.1-0.1,0.4-0.3C24.1,5,24.4,5,24.7,5z"/>
		<path fill="#00E5FF" d="M36,29.3c0.6,0.3,1.2-0.2,2-1.3c0.7-1.1,1.3-3,1.8-5.5c0,0,0.1,0,0.2,0c0.2,0,0.3,0.1,0.5,0.1
			c0.2,0.1,0.3,0.1,0.5,0.2c0.1,0.1,0.2,0.1,0.2,0.2c0,0.4,0,0.8-0.1,1.3c-0.1,0.5-0.1,1.1-0.2,1.7c-0.1,0.6-0.1,1.3-0.1,2
			c0,0.7,0,1.4,0,2.1c0.7-0.6,1.4-1,2.1-1.3c0.8-0.3,1.5-0.5,2.2-0.6c0.2,0.1,0.4,0.2,0.4,0.2c0,0,0,0.1-0.2,0.2
			c-0.9,0.3-1.8,0.6-2.5,1.1c-0.7,0.5-1.4,1-2,1.6c0,0.8,0,1.7,0,2.6c0,0.9,0,1.8,0,2.8c0,0.9,0,1.8,0,2.7c0,0.9-0.1,1.7-0.1,2.4
			c-0.1,0.7-0.2,1.3-0.4,1.8c-0.2,0.5-0.4,0.9-0.7,1c-0.2,0.1-0.4,0.2-0.7,0.2c-0.3,0-0.5,0-0.8,0c-0.3,0-0.5-0.1-0.7-0.2
			c-0.2-0.1-0.4-0.2-0.6-0.4c-0.5-0.5-0.8-1.1-1-1.8c-0.2-0.7-0.3-1.5-0.3-2.4c0-0.9,0.1-1.8,0.3-2.7c0.2-0.9,0.5-1.8,0.8-2.6
			c0.3-0.8,0.7-1.6,1.2-2.3c0.5-0.7,1-1.2,1.6-1.6c0.1-1.3,0.1-2.7,0.1-4c-0.2,0.6-0.6,1.3-1.1,2.1c-0.5,0.7-1.1,1.3-1.8,1.8
			c-0.8,0.3-1.4,0.3-2-0.1c-0.5-0.4-0.9-1.1-1-1.9c-0.1-1-0.2-1.9-0.3-2.5c-0.1-0.7-0.1-1.3-0.2-1.9c-0.1-0.6-0.1-1.2-0.1-1.9
			c0-0.6-0.1-1.5-0.2-2.4c0.1-0.1,0.3-0.1,0.6-0.1c0.2,0,0.4,0.1,0.6,0.2c0.1,0,0.1,0.2,0.1,0.6c0,0.4,0,0.9,0.1,1.5
			c0,0.6,0.1,1.3,0.1,2c0,0.7,0.1,1.4,0.2,2.1c0.1,0.7,0.3,1.2,0.4,1.7C35.5,28.8,35.7,29.1,36,29.3z M39.9,32.4
			c-0.1,0.2-0.3,0.3-0.5,0.5c-0.2,0.2-0.3,0.3-0.5,0.5c-0.3,0.4-0.6,0.9-0.9,1.6c-0.3,0.7-0.6,1.4-0.8,2.2c-0.2,0.8-0.4,1.6-0.4,2.4
			c-0.1,0.8-0.1,1.5,0.1,2.2c0.1,0.6,0.3,1.1,0.7,1.5c0.3,0.4,0.8,0.5,1.5,0.4c0.2-0.1,0.4-0.3,0.6-0.9s0.3-1.2,0.3-1.9
			c0.1-0.8,0.1-1.6,0.1-2.5c0-0.9,0-1.8,0-2.6c0-0.8-0.1-1.6-0.1-2.2C39.9,33.1,39.9,32.6,39.9,32.4z"/>
		<path fill="#00E5FF" d="M52.6,20.9c0,0.1-0.1,0.5-0.2,0.9c-0.1,0.5-0.2,1-0.3,1.7c-0.1,0.6-0.2,1.3-0.3,2c-0.1,0.7-0.1,1.4-0.1,2
			c0,0.6,0,1.2,0.1,1.6c0.1,0.4,0.2,0.7,0.4,0.8c0.6,0.3,1.2,0.2,1.8-0.3c0.6-0.5,1.3-1.2,2.1-2.1c0.1,0,0.1,0.1,0,0.3
			c-0.1,0.2-0.2,0.4-0.3,0.7c-0.1,0.2-0.3,0.5-0.4,0.7c-0.1,0.2-0.2,0.4-0.3,0.5c-0.2,0.2-0.5,0.5-0.9,0.8c-0.4,0.3-0.8,0.6-1.2,0.7
			c-0.4,0.2-0.8,0.3-1.2,0.2c-0.4,0-0.7-0.2-1-0.7c-0.1-0.3-0.2-0.7-0.2-1.1c0-0.4,0-0.9,0-1.3c0-0.4,0.1-0.9,0.1-1.2
			c0-0.4,0.1-0.6,0.1-0.8c-0.5,1-1.1,1.9-1.8,2.8c-0.7,0.9-1.3,1.6-2,2.1c-0.6,0.5-1.2,0.8-1.8,0.8c-0.5,0-1-0.3-1.3-1
			c-0.2-0.6-0.2-1.4,0-2.2c0.2-0.8,0.4-1.5,0.8-2.2c0.5-0.9,1.1-1.7,1.6-2.5c0.6-0.7,1.2-1.4,1.8-1.9c0.6-0.5,1.3-0.9,2-1.1
			C51.1,20.9,51.8,20.8,52.6,20.9z M45.6,30.4c0.2,0.1,0.6-0.1,1.2-0.6c0.5-0.4,1.1-1,1.7-1.8c0.6-0.8,1.1-1.6,1.6-2.6
			c0.5-1,0.8-2.1,1-3.2c-0.1,0-0.2,0-0.4,0c-0.2,0-0.4,0.1-0.7,0.2c-0.9,0.6-1.8,1.3-2.4,2.2c-0.7,0.8-1.2,1.6-1.6,2.4
			c-0.4,0.8-0.6,1.5-0.7,2.1C45.2,29.8,45.3,30.2,45.6,30.4z"/>
		<path fill="#00E5FF" d="M57.2,20.5c0,0.7,0,1.4,0,2.1c0,0.7,0,1.4,0,2c0,0.6,0,1.3,0,1.8c0,0.6,0,1.1-0.1,1.5
			c0-0.1,0.1-0.3,0.2-0.7c0.1-0.4,0.3-0.8,0.5-1.3c0.2-0.5,0.4-1,0.7-1.6c0.2-0.6,0.5-1.1,0.8-1.5c0.3-0.4,0.6-0.8,0.8-1
			c0.3-0.2,0.6-0.3,0.8-0.2c0.5,0.2,0.9,0.6,1.2,1.1c0.2,0.5,0.4,1,0.5,1.6c0.1,0.6,0.2,1.3,0.3,2c0.1,0.7,0.3,1.5,0.7,2.3
			c0.1,0.4,0.4,0.6,0.7,0.8c0.3,0.2,0.6,0.3,0.8,0.4c0.3,0.1,0.5,0.1,0.6,0.1c0.2,0,0.2,0.1,0.2,0.1c-0.6,0.5-1.2,0.6-1.6,0.5
			c-0.4-0.1-0.8-0.5-1.1-1c-0.3-0.5-0.6-1.1-0.8-1.8c-0.2-0.7-0.4-1.4-0.5-2.1c-0.2-0.7-0.3-1.2-0.4-1.7c-0.1-0.5-0.3-0.7-0.4-0.7
			c-0.2,0-0.5,0.2-0.7,0.6c-0.3,0.4-0.5,0.9-0.8,1.5c-0.3,0.6-0.5,1.2-0.8,2c-0.2,0.7-0.5,1.4-0.7,2c-0.2,0.6-0.4,1.2-0.5,1.6
			c-0.1,0.4-0.2,0.7-0.2,0.8c-0.4,0-0.6,0-0.7,0c-0.1,0-0.2-0.1-0.4-0.4c0.1-2.2,0.2-4.3,0.1-6.2c0-2-0.1-3.6-0.2-5.1
			c0-0.2,0.1-0.3,0.2-0.3c0.1,0,0.2,0.1,0.4,0.1c0.1,0.1,0.3,0.2,0.4,0.3C57,20.5,57.1,20.5,57.2,20.5z"/>
		<path fill="#00E5FF" d="M67.1,20.5c0,0.7,0,1.4,0,2.1c0,0.7,0,1.4,0,2c0,0.6,0,1.3,0,1.8c0,0.6,0,1.1-0.1,1.5
			c0-0.1,0.1-0.3,0.2-0.7c0.1-0.4,0.3-0.8,0.5-1.3c0.2-0.5,0.4-1,0.7-1.6c0.2-0.6,0.5-1.1,0.8-1.5c0.3-0.4,0.6-0.8,0.8-1
			c0.3-0.2,0.6-0.3,0.8-0.2c0.5,0.2,0.9,0.6,1.2,1.1c0.2,0.5,0.4,1,0.5,1.6c0.1,0.6,0.2,1.3,0.3,2c0.1,0.7,0.3,1.5,0.7,2.3
			c0.1,0.4,0.4,0.6,0.7,0.8c0.3,0.2,0.6,0.3,0.8,0.4C75,30,75.2,30,75.3,30c0.2,0,0.2,0.1,0.2,0.1c-0.6,0.5-1.2,0.6-1.6,0.5
			c-0.4-0.1-0.8-0.5-1.1-1c-0.3-0.5-0.6-1.1-0.8-1.8c-0.2-0.7-0.4-1.4-0.5-2.1c-0.2-0.7-0.3-1.2-0.4-1.7c-0.1-0.5-0.3-0.7-0.4-0.7
			c-0.2,0-0.5,0.2-0.7,0.6c-0.3,0.4-0.5,0.9-0.8,1.5c-0.3,0.6-0.5,1.2-0.8,2c-0.2,0.7-0.5,1.4-0.7,2c-0.2,0.6-0.4,1.2-0.5,1.6
			c-0.1,0.4-0.2,0.7-0.2,0.8c-0.4,0-0.6,0-0.7,0c-0.1,0-0.2-0.1-0.4-0.4c0.1-2.2,0.2-4.3,0.1-6.2c0-2-0.1-3.6-0.2-5.1
			c0-0.2,0.1-0.3,0.2-0.3c0.1,0,0.2,0.1,0.4,0.1c0.1,0.1,0.3,0.2,0.4,0.3C66.9,20.5,67,20.5,67.1,20.5z"/>
		<path fill="#00E5FF" d="M78.5,21.3c0.1,0,0.3-0.1,0.6-0.2c0.3-0.1,0.6-0.1,0.9-0.1c0.7,0,1.3,0.2,1.7,0.6c0.4,0.4,0.4,1.2,0.1,2.3
			c-0.5,1.3-1.1,2.3-1.9,3.2c-0.8,0.8-1.7,1.7-2.8,2.4c0.2,0.6,0.6,1,1.1,1.1c0.5,0.1,1,0,1.6-0.2c0.5-0.2,1.1-0.6,1.6-1
			c0.5-0.4,0.9-0.7,1.3-1c0.5-0.4,0.9-0.8,1.2-1.1c0.3-0.3,0.6-0.7,1-1.1c0.1,0,0.1,0,0.1,0c0,0.1,0,0.2,0,0.3
			c0,0.1-0.1,0.3-0.1,0.5c-0.1,0.2-0.1,0.3-0.2,0.5c-0.1,0.1-0.2,0.3-0.3,0.4c-0.1,0.2-0.3,0.4-0.5,0.6c-0.2,0.2-0.5,0.5-0.8,0.9
			c-0.4,0.3-0.7,0.7-1.1,1c-0.3,0.3-0.7,0.6-1.1,0.9c-0.4,0.2-0.8,0.4-1.3,0.5c-0.5,0.1-1,0.1-1.6,0c-0.5-0.2-0.9-0.4-1.2-0.6
			c-0.3-0.2-0.5-0.4-0.7-0.6c-0.2-0.2-0.3-0.4-0.4-0.6c-0.1-0.2-0.1-0.3-0.1-0.4c-0.1-0.5-0.2-1.2-0.1-2c0-0.8,0.3-1.9,0.7-3.3
			c0.3-0.7,0.7-1.3,1-1.8C77.6,22,78,21.6,78.5,21.3z M76.9,27.9c0.3-0.2,0.7-0.4,1.1-0.7c0.4-0.3,0.8-0.7,1.2-1.1
			c0.4-0.4,0.7-0.9,1-1.4c0.3-0.5,0.4-1,0.5-1.6c0.1-0.4,0.1-0.6,0-0.8c-0.1-0.1-0.1-0.1-0.1-0.1c-0.4-0.2-0.8-0.1-1.3,0.2
			c-0.4,0.3-0.8,0.8-1.2,1.4c-0.3,0.6-0.6,1.3-0.9,2C77,26.6,76.9,27.3,76.9,27.9z"/>
	</g>
	<g>
		<path fill="#FFFFFF" d="M103.9,35.1c-0.1,0.2-0.2,0.3-0.3,0.5c-0.2,0.2-0.3,0.2-0.5,0.3c-0.2,0-0.4,0-0.5-0.1
			c-0.2-0.1-0.3-0.3-0.5-0.7c-0.6-1.1-1.1-2.1-1.6-3c-0.4-0.9-0.8-1.9-1.2-2.9c-0.4-1-0.7-2.1-1.1-3.3c-0.4-1.2-0.8-2.7-1.3-4.4
			c-0.5,1.4-0.9,2.8-1.4,4.3c-0.5,1.5-1,3-1.5,4.4c-0.5,1.4-1.1,2.8-1.6,4c-0.5,1.2-1.1,2.2-1.6,3c-0.3,0.5-0.6,0.8-0.8,0.9
			c-0.2,0.2-0.4,0.2-0.6,0.2c-0.2,0-0.3-0.2-0.4-0.3c-0.1-0.2-0.2-0.3-0.2-0.5c-0.3-2.6-0.5-5.1-0.7-7.5c-0.2-2.4-0.4-4.6-0.6-6.4
			s-0.4-3.5-0.5-4.7c-0.2-1.2-0.4-2-0.6-2.3c-0.1-0.5,0.1-0.9,0.6-1.2c0.4-0.3,0.9-0.3,1.3-0.2c0.1,0,0.2,0.5,0.4,1.5
			c0.1,1,0.2,2.2,0.3,3.6c0.1,1.4,0.2,3,0.3,4.7c0.1,1.7,0.2,3.2,0.3,4.7c0.1,1.4,0.2,2.6,0.3,3.6c0.1,0.9,0.2,1.4,0.2,1.4
			c0.1,0.2,0.3,0.1,0.6-0.4c0.3-0.5,0.6-1.1,1-2c0.4-0.9,0.8-1.9,1.2-3.2c0.4-1.2,0.9-2.5,1.3-3.8c0.4-1.3,0.8-2.6,1.2-3.9
			c0.4-1.3,0.7-2.4,1-3.5c0.2-0.3,0.3-0.6,0.4-0.7c0.1-0.1,0.4-0.1,0.8,0c0.2,0.1,0.4,0.3,0.5,0.7c0.1,0.4,0.2,0.8,0.3,1.4
			c0.1,0.5,0.1,1.1,0.2,1.8c0.1,0.7,0.2,1.3,0.4,2c0.2,0.6,0.3,1.3,0.6,2.1c0.2,0.9,0.5,1.7,0.8,2.6c0.3,0.9,0.6,1.8,0.9,2.6
			c0.3,0.8,0.7,1.5,1,2c0.2,0.2,0.4-0.2,0.7-0.9c0.3-0.8,0.5-1.8,0.8-3.1c0.3-1.3,0.5-2.8,0.8-4.4c0.3-1.6,0.5-3.2,0.7-4.7
			c0.2-1.5,0.3-2.9,0.4-4.2c0.1-1.2,0.1-2.2,0-2.7c0-0.4,0-0.6,0.1-0.8c0-0.2,0.1-0.3,0.1-0.3c0-0.1,0-0.1,0-0.2
			c0-0.1,0-0.2-0.1-0.4c-0.1-0.1,0-0.3,0.1-0.4c0.1-0.2,0.2-0.3,0.4-0.4c0.2-0.1,0.3-0.2,0.5-0.2c0.2,0,0.4,0,0.5,0.2
			c0.1,0.1,0.1,0.4,0.1,0.8s0,0.9-0.1,1.6s-0.1,1.4-0.2,2.2c-0.1,0.8-0.1,1.8-0.2,2.8c-0.2,1.5-0.4,3.1-0.7,4.7
			c-0.2,1.6-0.5,3.2-0.7,4.8c-0.2,1.6-0.5,3.1-0.8,4.6C104.5,32.6,104.2,33.9,103.9,35.1z"/>
		<path fill="#FFFFFF" d="M116.6,24.6c0,0.2-0.1,0.6-0.2,1.1c-0.1,0.6-0.2,1.2-0.3,2c-0.1,0.8-0.2,1.6-0.3,2.4
			c-0.1,0.8-0.1,1.6-0.2,2.4c0,0.8,0,1.4,0.1,1.9c0.1,0.5,0.3,0.8,0.5,1c0.7,0.3,1.4,0.2,2.1-0.3c0.7-0.6,1.6-1.4,2.5-2.5
			c0.1,0,0.1,0.1,0,0.4c-0.1,0.2-0.2,0.5-0.4,0.8c-0.2,0.3-0.3,0.6-0.5,0.9c-0.2,0.3-0.3,0.5-0.4,0.6c-0.2,0.3-0.6,0.6-1,1
			c-0.5,0.4-0.9,0.7-1.4,0.9c-0.5,0.2-1,0.3-1.5,0.3c-0.5,0-0.8-0.3-1.2-0.8c-0.2-0.4-0.2-0.8-0.3-1.3c0-0.5,0-1.1,0-1.6
			c0-0.5,0.1-1,0.1-1.5c0.1-0.5,0.1-0.8,0.1-1c-0.6,1.2-1.4,2.3-2.2,3.3c-0.8,1.1-1.6,1.9-2.4,2.5c-0.8,0.6-1.5,0.9-2.2,1
			c-0.7,0-1.2-0.3-1.5-1.2c-0.2-0.8-0.2-1.7,0-2.6c0.2-1,0.5-1.9,0.9-2.6c0.6-1.1,1.3-2.1,2-3c0.7-0.9,1.4-1.7,2.2-2.3
			c0.8-0.6,1.6-1.1,2.5-1.4C114.8,24.5,115.7,24.5,116.6,24.6z M108.2,36.1c0.3,0.1,0.8-0.2,1.4-0.7c0.7-0.5,1.4-1.2,2.1-2.1
			c0.7-0.9,1.4-2,2-3.2c0.6-1.2,1-2.5,1.2-3.9c-0.1,0-0.3,0-0.5,0c-0.2,0-0.5,0.1-0.8,0.3c-1.1,0.8-2.1,1.6-2.9,2.6
			c-0.8,1-1.4,2-1.9,2.9c-0.5,0.9-0.7,1.8-0.8,2.5C107.8,35.3,107.9,35.8,108.2,36.1z"/>
		<path fill="#FFFFFF" d="M120.7,23.6c0-0.3,0.1-0.3,0.4-0.2c0.3,0.1,0.6,0.3,1,0.4c0.1,0.7,0.2,1.2,0.3,1.6
			c0.1,0.4,0.1,0.8,0.1,1.2c0,0.4,0.1,0.8,0.1,1.2c0,0.4,0.1,1,0.1,1.7c0.3-0.7,0.6-1.3,1-1.9c0.4-0.6,0.9-1.1,1.5-1.5
			c0.6-0.4,1.4-0.7,2.2-0.9c0.9-0.2,1.9-0.3,3.1-0.2c0,0.2-0.1,0.4-0.2,0.6c-0.2,0.2-0.5,0.3-1.2,0.4c-0.9,0.2-1.6,0.4-2.3,0.9
			c-0.6,0.4-1.2,0.9-1.7,1.5c-0.5,0.6-0.8,1.2-1.1,1.8c-0.3,0.6-0.5,1.2-0.7,1.8c0,0.3-0.1,0.7-0.1,1.1s-0.1,1-0.1,1.6
			c0,0.6,0,1.1,0,1.6c0,0.5,0,0.9,0.1,1.2c0,0.2,0,0.3-0.2,0.3c-0.2,0.1-0.4,0.1-0.6,0.2c-0.2,0-0.4,0-0.6,0
			c-0.2-0.1-0.3-0.2-0.3-0.3c0.1-3.1,0-5.8-0.2-8C121,27.4,120.8,25.4,120.7,23.6z"/>
		<path fill="#FFFFFF" d="M144.2,14.1c-0.1,0.5-0.2,1.1-0.3,1.7c-0.1,0.6-0.2,1.2-0.4,1.7c-0.1,0.5-0.2,1-0.3,1.4
			c-0.1,0.4-0.2,0.6-0.2,0.7c-0.2,0.5-0.4,1.2-0.7,2c-0.3,0.8-0.7,1.7-1.1,2.5c-0.4,0.9-0.9,1.8-1.4,2.7c-0.5,0.9-1,1.6-1.6,2.3
			c0,0.5,0.1,1.2,0.2,2.3c0.1,1.1,0.2,2.2,0.4,3.5c0.2,1.2,0.3,2.4,0.4,3.6c0.1,1.2,0.2,2.1,0.2,2.8c-0.2,0.2-0.3,0.1-0.4-0.1
			c-0.1-0.2-0.3-0.6-0.5-1.1c-0.2-0.8-0.3-1.5-0.4-2.2c-0.1-0.7-0.2-1.3-0.3-2c-0.1-0.7-0.2-1.4-0.3-2.1c-0.1-0.8-0.3-1.6-0.5-2.6
			c-0.6,0.7-1.3,1.5-2.1,2.5c-0.8,0.9-1.6,1.7-2.5,2.4c-0.9,0.7-1.7,1.2-2.5,1.5c-0.8,0.3-1.5,0.2-2.1-0.4c-0.4-0.5-0.5-1-0.5-1.7
			c0-0.6,0.2-1.3,0.5-2c0.3-0.7,0.7-1.3,1.2-2c0.5-0.7,1-1.3,1.5-1.8c0.5-0.6,1-1.1,1.4-1.5c0.5-0.4,0.8-0.7,1-0.9
			c0.4-0.3,0.8-0.5,1.1-0.7c0.3-0.2,0.5-0.3,0.8-0.4c0.2-0.1,0.5-0.2,0.7-0.2c0.2,0,0.5-0.1,0.9,0c-0.1-0.7-0.1-1.5-0.1-2.5
			c0-1,0-1.9,0-2.9c0-1,0-1.9,0.1-2.7c0-0.8,0.1-1.5,0.2-1.9c0.1-0.7,0.2-1.4,0.4-2.1c0.2-0.7,0.5-1.4,0.9-2.1
			c0.3-0.7,0.7-1.3,1.2-1.8c0.4-0.5,0.9-0.9,1.4-1.1c0.5-0.2,1-0.3,1.5-0.2c0.5,0.1,1,0.5,1.6,1.1c0.4,0.5,0.6,1.1,0.6,1.9
			C144.2,12.5,144.2,13.3,144.2,14.1z M131.7,30.4c-0.8,0.8-1.4,1.6-1.8,2.3c-0.4,0.7-0.7,1.4-0.9,2c0,0.1,0,0.2,0,0.4
			c0,0.2,0,0.4,0.1,0.6c0,0.2,0.1,0.3,0.3,0.5c0.1,0.1,0.4,0.2,0.7,0.1c0.3-0.1,0.5-0.2,0.7-0.4c0.2-0.1,0.4-0.2,0.5-0.4
			c0.2-0.1,0.3-0.3,0.5-0.4c0.2-0.2,0.4-0.3,0.7-0.6c0.4-0.5,0.9-1,1.6-1.5c0.6-0.6,1.2-1.2,1.6-1.8c0.5-0.6,0.8-1.3,0.9-1.9
			c0.2-0.7,0-1.3-0.6-1.9c-0.2,0-0.4,0-0.7,0.1c-0.2,0.1-0.5,0.2-0.8,0.4c-0.3,0.2-0.7,0.5-1.2,0.9
			C132.9,29.1,132.3,29.7,131.7,30.4z M138.2,26.2c0.5-0.6,1-1.2,1.4-1.9c0.4-0.7,0.8-1.5,1.2-2.4c0.4-0.8,0.7-1.8,1.1-3.1
			c0.3-1.3,0.5-2.5,0.7-3.7c0.1-1.2,0.1-2.3,0-3.2c-0.1-0.9-0.4-1.4-0.9-1.4c-0.4-0.1-0.8,0.1-1.2,0.5c-0.4,0.4-0.7,0.8-1,1.4
			c-0.3,0.6-0.6,1.2-0.8,1.8c-0.2,0.6-0.4,1.2-0.5,1.7c-0.1,0.6-0.2,1.1-0.2,1.6c0,0.5-0.1,1-0.1,1.5c0,0.5,0,1.1-0.1,1.7
			c0,0.6-0.1,1.4-0.2,2.3c0,0.5,0,0.9,0.1,1.4c0,0.5,0.1,0.8,0.2,1.2c0.1,0.3,0.1,0.6,0.2,0.7C138.1,26.2,138.2,26.3,138.2,26.2z"/>
	</g>
</g>
</svg>
